HIERARCHY
ROOT Hips
{
  OFFSET 60.6838 92.6539 6.79346
  CHANNELS 6 Xposition Yposition Zposition Zrotation Xrotation Yrotation
  JOINT spine
  {
    OFFSET 0 7.4756 0.429885
    CHANNELS 3 Zrotation Xrotation Yrotation
    JOINT spine1
    {
      OFFSET 0 9.92301 0
      CHANNELS 3 Zrotation Xrotation Yrotation
      JOINT spine2
      {
        OFFSET 0 9.50804 0
        CHANNELS 3 Zrotation Xrotation Yrotation
        JOINT Neck
        {
          OFFSET 0 24.4111 1.16384
          CHANNELS 3 Zrotation Xrotation Yrotation
          JOINT Head
          {
            OFFSET 0 7.37523 0
            CHANNELS 3 Zrotation Xrotation Yrotation
            End Site
            {
              OFFSET 0 17.8522 -5.88741
            }
          }
        }
        JOINT RightShoulder
        {
          OFFSET -4.00356 10.2679 -0.557468
          CHANNELS 3 Zrotation Xrotation Yrotation
          JOINT RightArm
          {
            OFFSET 0 13.4673 0
            CHANNELS 3 Zrotation Xrotation Yrotation
            JOINT RightArmRoll
            {
              OFFSET 0 6.79858 0
              CHANNELS 3 Zrotation Xrotation Yrotation
              JOINT RightForeArm
              {
                OFFSET 0 19.8018 0
                CHANNELS 3 Zrotation Xrotation Yrotation
                JOINT RightForeArmRoll
                {
                  OFFSET 0 7.62905 0
                  CHANNELS 3 Zrotation Xrotation Yrotation
                  JOINT RightHand
                  {
                    OFFSET 0 15.3098 0
                    CHANNELS 3 Zrotation Xrotation Yrotation
                    End Site
                    {
                      OFFSET 0 0 0
                    }
                  }
                }
              }
            }
          }
        }
        JOINT LeftShoulder
        {
          OFFSET 4.00356 10.2679 -0.557468
          CHANNELS 3 Zrotation Xrotation Yrotation
          JOINT LeftArm
          {
            OFFSET 0 13.4673 0
            CHANNELS 3 Zrotation Xrotation Yrotation
            JOINT LeftArmRoll
            {
              OFFSET 0 6.79858 0
              CHANNELS 3 Zrotation Xrotation Yrotation
              JOINT LeftForeArm
              {
                OFFSET 0 19.8018 0
                CHANNELS 3 Zrotation Xrotation Yrotation
                JOINT LeftForeArmRoll
                {
                  OFFSET 0 7.62905 0
                  CHANNELS 3 Zrotation Xrotation Yrotation
                  JOINT LeftHand
                  {
                    OFFSET 0 15.3098 0
                    CHANNELS 3 Zrotation Xrotation Yrotation
                    End Site
                    {
                      OFFSET 0 0 0
                    }
                  }
                }
              }
            }
          }
        }
      }
    }
  }
  JOINT RightUpLeg
  {
    OFFSET -6.62609 -1.21505 -1.01927
    CHANNELS 3 Zrotation Xrotation Yrotation
    JOINT RightUpLegRoll
    {
      OFFSET 0 17.9517 0
      CHANNELS 3 Zrotation Xrotation Yrotation
      JOINT RightLeg
      {
        OFFSET 0 -22.2304 0
        CHANNELS 3 Zrotation Xrotation Yrotation
        JOINT RightLegRoll
        {
          OFFSET 0 22.3032 0
          CHANNELS 3 Zrotation Xrotation Yrotation
          JOINT RightFoot
          {
            OFFSET 0 18.5636 0
            CHANNELS 3 Zrotation Xrotation Yrotation
            JOINT RightToeBase
            {
              OFFSET 0 15.5183 0
              CHANNELS 3 Zrotation Xrotation Yrotation
              End Site
              {
                OFFSET 0.00657761 7.51539 -0.866262
              }
            }
          }
        }
      }
    }
  }
  JOINT LeftUpLeg
  {
    OFFSET 6.62609 -1.21505 -1.01927
    CHANNELS 3 Zrotation Xrotation Yrotation
    JOINT LeftUpLegRoll
    {
      OFFSET 0 17.9518 0
      CHANNELS 3 Zrotation Xrotation Yrotation
      JOINT LeftLeg
      {
        OFFSET 0 22.2303 0
        CHANNELS 3 Zrotation Xrotation Yrotation
        JOINT LeftLegRoll
        {
          OFFSET 0 22.5093 0
          CHANNELS 3 Zrotation Xrotation Yrotation
          JOINT LeftFoot
          {
            OFFSET 0 18.3575 0
            CHANNELS 3 Zrotation Xrotation Yrotation
            JOINT LeftToeBase
            {
              OFFSET 0 15.5183 0
              CHANNELS 3 Zrotation Xrotation Yrotation
              End Site
              {
                OFFSET -0.029478 7.51539 -0.866262
              }
            }
          }
        }
      }
    }
  }
}
MOTION
Frames: 4
Frame Time: 0.00208333
59.401 92.7512 6.39564 0.847816 -6.40498 -2.28175 0.24792 -0.341237 -0.226143 0.497462 3.31926 -0.483015 0.503923 4.96427 -0.491838 -18.2059 3.51417 1.59195 15.3564 7.36471 -1.27125 58.528 -2.09023 -1.27095 115.043 7.64528 27.302 2.45552e-007 4.97699e-007 -6.19199e-006 -0.192408 5.8665 -1.5952 5.86171e-006 -3.72115e-006 -3.00468 8.03022 -4.95139 0.697626 -83.8041 -0.576129 2.99951 -93.6816 2.96826 -24.0355 -1.63169e-005 -1.1836e-006 1.1719e-006 -4.65488 9.44832 1.38841 -1.58498e-005 9.71551e-007 3.00381 -8.02959 -4.9514 -0.69765 173.793 10.2653 2.97704 180 7.01512e-015 178.781 179.529 28.4569 178.932 -2.99257e-007 -3.05125e-006 0.506113 -18.9642 68.1469 19.6567 8.15786 25.7094 -2.84239 176.596 -0.346529 2.81858 4.54188e-006 -4.6773e-006 -1.09955 -6.0566 -10.1312 -0.32511 -8.94159e-007 -3.52444e-006 -0.0798523 21.0631 70.2273 -21.5825 -8.13649 25.2327 3.48774 
59.4069 92.753 6.39494 0.848287 -6.38594 -2.28277 0.244966 -0.348863 -0.225982 0.491521 3.30399 -0.482313 0.497964 4.949 -0.491034 -18.1337 3.62897 1.59188 15.3075 7.26973 -1.26388 58.6444 -2.07355 -1.27244 114.808 7.6786 27.2985 2.45552e-007 4.97699e-007 -6.19199e-006 -0.161016 5.79735 -1.59131 5.86171e-006 -3.72115e-006 -3.00468 8.03022 -4.95139 0.697626 -83.78 -0.545883 2.98659 -93.6137 2.89957 -24.0723 -1.63169e-005 -1.1836e-006 1.1719e-006 -4.65253 9.43457 1.38674 -1.58498e-005 9.71551e-007 3.00381 -8.02959 -4.9514 -0.69765 173.79 10.2852 2.97916 180 7.01512e-015 178.781 179.523 28.4579 178.934 -2.99257e-007 -3.05125e-006 0.506183 -18.9682 68.1516 19.661 8.1573 25.7008 -2.8538 176.594 -0.330988 2.82348 4.54188e-006 -4.6773e-006 -1.09942 -6.05283 -10.1237 -0.324292 -8.9416e-007 -3.52444e-006 -0.0798725 21.0596 70.2225 -21.5804 -8.13649 25.2327 3.48774 
59.4148 92.7534 6.39726 0.848962 -6.366 -2.28331 0.241873 -0.356738 -0.225833 0.485311 3.28821 -0.481627 0.491734 4.93323 -0.490242 -18.0601 3.74556 1.59167 15.2577 7.17267 -1.25645 58.7615 -2.05677 -1.27393 114.573 7.70918 27.2917 2.45552e-007 4.97699e-007 -6.19199e-006 -0.126983 5.73063 -1.5875 5.86171e-006 -3.72115e-006 -3.00468 8.03022 -4.95139 0.697626 -83.7559 -0.51464 2.97332 -93.5471 2.8289 -24.1068 -1.63169e-005 -1.1836e-006 1.1719e-006 -4.65236 9.42191 1.38531 -1.58498e-005 9.71551e-007 3.00381 -8.02959 -4.9514 -0.69765 173.786 10.3057 2.98201 180 7.01512e-015 178.781 179.517 28.4584 178.936 -2.99257e-007 -3.05125e-006 0.506234 -18.9722 68.1562 19.6653 8.15669 25.6917 -2.86601 176.592 -0.315348 2.82831 4.54188e-006 -4.6773e-006 -1.09923 -6.04922 -10.1145 -0.323409 -8.9416e-007 -3.52444e-006 -0.079872 21.0548 70.2169 -21.5774 -8.13649 25.2327 3.48774 
59.4155 92.7536 6.40008 0.849778 -6.34543 -2.2835 0.238684 -0.364788 -0.225694 0.478911 3.27208 -0.480952 0.485315 4.91709 -0.489457 -17.9856 3.8634 1.59136 15.2072 7.07415 -1.24899 58.8791 -2.03993 -1.27542 114.34 7.73784 27.2827 2.45552e-007 4.97699e-007 -6.19199e-006 -0.0910986 5.66563 -1.58373 5.86171e-006 -3.72115e-006 -3.00468 8.03022 -4.95139 0.697626 -83.7317 -0.4827 2.95982 -93.4813 2.75685 -24.1397 -1.63169e-005 -1.1836e-006 1.1719e-006 -4.65371 9.41001 1.38405 -1.58498e-005 9.71551e-007 3.00381 -8.02959 -4.9514 -0.69765 173.782 10.3267 2.98537 180 7.01512e-015 178.781 179.51 28.4587 178.939 -2.99257e-007 -3.05125e-006 0.506271 -18.9762 68.1609 19.6696 8.15604 25.6822 -2.87877 176.59 -0.299638 2.83309 4.54188e-006 -4.6773e-006 -1.09899 -6.04572 -10.1042 -0.322481 -8.9416e-007 -3.52444e-006 -0.0798572 21.0493 70.2106 -21.5738 -8.13649 25.2327 3.48774 
